<svg fill="#00000A" xmlns="http://www.w3.org/2000/svg" x="0px" y="0px" viewBox="0 0 164.4 123.9">
  <path d="M123.6,32.7h-4.2v12.3h4.3c5.4,0,8.1-2.1,8.1-6.4c0-2-0.7-3.5-2.1-4.5C128.2,33.2,126.2,32.7,123.6,32.7z
    M40.2,32.7h-4.4v15.7h4c2.6,0,4.7-0.2,6.3-0.7c1.6-0.5,2.7-1.3,3.5-2.5c0.7-1.2,1.1-2.8,1.1-4.9c0-2.6-0.8-4.6-2.4-5.8
    C46.7,33.4,44,32.7,40.2,32.7z M123.5,50.3h-4.1v14.1h2.5c2.5,0,4.6-0.2,6.3-0.5c1.6-0.3,3-1,4-2s1.5-2.6,1.5-4.7
    c0-2.3-0.8-4.1-2.5-5.2C129.6,50.9,127,50.3,123.5,50.3z M122.7,27.5l0.8,0c4.8,0.1,8.4,1,10.8,2.7c2.5,1.8,3.8,4.5,3.8,8.2
    c0,2-0.4,3.7-1.3,5.2c-0.9,1.5-2.2,2.7-3.9,3.5c2.4,0.8,4.2,2.2,5.5,3.9c1.3,1.8,1.9,3.9,1.9,6.4c0,4-1.5,7.1-4.5,9.2
    c-2.8,2-7,3.1-12.6,3.1l-0.8,0h-14.8v-5.3h5.3V32.7h-5.3v-5.3H122.7z M39.8,27.5l0.8,0c3.9,0.1,7,0.5,9.4,1.4
    c2.5,0.9,4.3,2.3,5.4,4.2c1.1,1.9,1.6,4.4,1.6,7.5c0,3.9-1.2,7-3.6,9.4c-2.3,2.3-6.1,3.5-11.5,3.6l-0.7,0h-5.6v10.9h5.6v5.3H23.9
    v-5.3h5.3V32.7h-5.3v-5.3H39.8z M82.9,26.8c2.8,0,5.3,0.5,7.7,1.4c2.1,0.8,4,2,5.8,3.4l0.7,0.6v-4.7h5.4V41h-5.6l-0.3-0.6
    c-1.4-2.4-3.2-4.3-5.4-5.7c-2.4-1.5-5.1-2.3-8-2.3c-2.8,0-5.3,0.7-7.5,2.2c-2.2,1.5-3.9,3.4-5.2,5.9c-1.2,2.5-1.9,5.1-1.9,7.9
    c0,2.9,0.6,5.6,1.9,8.1c1.3,2.5,3.1,4.4,5.3,5.9c2.3,1.5,4.8,2.2,7.6,2.2c3.4,0,6.4-1,9.1-3.1c2.5-1.9,4.3-4.6,5.5-8.1l0.2-0.7
    l5.4,2.9l-0.2,0.7c-1.5,4.4-4,7.8-7.6,10.3c-3.7,2.6-8.1,3.9-13.1,3.9c-4.1,0-7.8-1-11-2.9c-3.2-2-5.7-4.6-7.5-7.9
    c-1.8-3.3-2.7-6.9-2.7-10.9c0-4.3,0.9-8.1,2.7-11.4c1.8-3.3,4.3-5.9,7.5-7.8C75.1,27.7,78.8,26.8,82.9,26.8z M141.4,77.5v1.9H23
    v-1.9H141.4z M139.5,11H11.4v102H153V24.4c0-7.3-5.9-13.3-13.3-13.4L139.5,11z M139.5,9c8.5,0,15.5,6.9,15.5,15.3v90.5H9.4V9
    H139.5z M119.4,88.4h-2.5v4.5h2.3c1,0,1.8-0.2,2.3-0.5c0.5-0.4,0.8-1,0.8-1.8c0-0.7-0.2-1.3-0.7-1.6
    C121.1,88.5,120.4,88.4,119.4,88.4z M58.4,88.4h-2.5v4.5h2.3c1,0,1.8-0.2,2.3-0.5c0.5-0.4,0.8-1,0.8-1.8c0-0.7-0.2-1.3-0.7-1.6
    C60.1,88.5,59.4,88.4,58.4,88.4z M29.6,88.4h-1.7v5.9h1.5c1,0,1.8-0.1,2.4-0.3c0.6-0.2,1-0.5,1.3-0.9c0.3-0.4,0.4-1,0.4-1.8
    c0-1-0.3-1.7-0.9-2.2C32,88.6,31,88.4,29.6,88.4z M42.4,88.3L42.4,88.3l-2.3,6.5h4.5L42.4,88.3z M119,86.4l0.5,0
    c1.8,0.1,3.1,0.4,4,1c0.9,0.7,1.4,1.7,1.4,3.2c0,1-0.3,1.9-0.9,2.6c-0.5,0.6-1.2,1-2.1,1.3l-0.4,0.1l2.8,5.7h2v2h-3.6l-3.5-7.4
    h-2.2v5.4h2v2h-6.6v-2h2.2V88.4h-2.2v-2H119z M111.3,86.4V91h-2v-2.7h-6.9v4.7h6v2h-6v5.2h6.9v-2.9h2v4.9H98v-2h2.1V88.4H98v-2
    H111.3z M79.2,86.4v5.8h-2v-3.8h-3.3v11.9H76v2h-6.5v-2h2V88.4h-3.3v3.8h-2v-5.8H79.2z M58,86.4l0.5,0c1.8,0.1,3.1,0.4,4,1
    c0.9,0.7,1.4,1.7,1.4,3.2c0,1-0.3,1.9-0.9,2.6c-0.5,0.6-1.2,1-2.1,1.3l-0.4,0.1l2.8,5.7h2v2h-3.6l-3.5-7.4h-2.2v5.4h2v2h-6.6v-2
    h2.2V88.4h-2.2v-2H58z M46.5,86.4v1.9h-1.9l4.3,12h1.8v2h-6.3v-2h2.1l-1.2-3.6h-5.8l-1.2,3.6h2v2h-6.4v-2h1.9l4.3-12h-1.9v-1.9
    H46.5z M29.4,86.4l0.5,0c1.4,0,2.5,0.2,3.3,0.5c0.9,0.3,1.6,0.9,2,1.6c0.4,0.7,0.6,1.6,0.6,2.8c0,1.4-0.4,2.6-1.3,3.5
    c-0.8,0.8-2.2,1.3-4.1,1.4l-0.5,0h-2.1v4.1H30v2h-6.5v-2h2V88.4h-2v-2H29.4z M85.8,86.4l7,12.3V88.4h-2.3v-2h6.6v2h-2.3v14h-2.5
    l-7.7-13.6v11.4h2.3v2h-6.6v-2h2.3V88.4h-2.3v-2H85.8z M132,86.1c1.3,0,2.5,0.4,3.6,1.3v-1.1h2v4.8h-2V90l-0.2-0.3
    c-0.8-1-1.9-1.6-3.2-1.6c-0.9,0-1.6,0.2-2,0.5c-0.5,0.4-0.7,0.9-0.7,1.5c0,0.6,0.2,1.1,0.7,1.4c0.4,0.3,1.1,0.6,2,0.8L134,93
    l0.4,0.1c1,0.3,1.8,0.7,2.3,1.1c0.6,0.5,1.1,1.1,1.3,1.7c0.2,0.6,0.3,1.2,0.3,1.9c0,1.4-0.5,2.6-1.4,3.4c-0.9,0.8-2.1,1.3-3.6,1.3
    c-1.5,0-2.8-0.5-4-1.6v1.3h-2v-5.8h2v1.4l0.2,0.3c0.9,1.5,2.1,2.3,3.5,2.3c0.9,0,1.6-0.2,2.1-0.7c0.5-0.5,0.7-1.1,0.7-1.9
    c0-1.1-0.8-1.9-2.4-2.4l-2-0.6l-0.5-0.1c-1.2-0.4-2.1-0.9-2.7-1.5c-0.7-0.7-1-1.6-1-2.7c0-1.4,0.4-2.5,1.2-3.2
    C129.4,86.5,130.5,86.1,132,86.1z"/>
</svg>
